<?xml version="1.0" encoding="UTF-8"?>
<svg version="1.1" viewBox="0 0 24 36" xmlns="http://www.w3.org/2000/svg">
<title>Group</title>
<desc>Created with Sketch.</desc>
<g fill="none" fill-rule="evenodd">
<g transform="translate(-17 -7)">
<g id="a">
<g transform="translate(17 8)">
<g>
<g transform="translate(.55995)">
<polygon points="11.275 6.6552 2.5359 6.6025 6.8276 33.716 7.7639 33.716 16.347 33.716 17.283 33.716 21.575 6.6025" fill="#FF9100"/>
<polygon points="11.275 6.6552 2.5359 6.6025 6.8276 33.716 7.7639 33.716 14.162 33.716 15.099 33.716 19.39 6.6025" fill="#fd0"/>
<polygon points="0.039015 6.6025 22.589 6.6025 22.589 4.1022 0.039015 4.1022" fill="#fff"/>
<polygon points="0.039015 6.6025 22.589 6.6025 22.589 4.1022 0.039015 4.1022" stroke="#000" stroke-width="1.1704"/>
<polygon points="18.22 0.039068 12.836 0.039068 9.6366 0.039068 4.2526 0.039068 2.614 3.7896 9.6366 3.7896 12.836 3.7896 19.858 3.7896" fill="#fff"/>
<g transform="translate(.93635)" stroke-width="1.1704">
<polygon points="17.283 0.039068 11.899 0.039068 8.7003 0.039068 3.3162 0.039068 1.6776 3.7896 8.7003 3.7896 11.899 3.7896 18.922 3.7896" stroke="#050505"/>
<polygon points="10.339 6.6552 0.039015 6.6025 4.3306 33.716 5.267 33.716 15.411 33.716 16.347 33.716 20.639 6.6025" stroke="#000"/>
</g>
<polygon points="21.887 14.26 11.606 14.26 10.866 14.26 0.58522 14.26 2.5083 25.043 11.236 24.949 19.964 25.043" fill="#fff"/>
<polygon points="21.887 14.26 11.606 14.26 10.866 14.26 0.58522 14.26 2.5083 25.043 11.236 24.949 19.964 25.043" stroke="#000" stroke-width="1.1704"/>
</g>
</g>
</g>https://00s.myretrotvs.com/img/reporticon.svg
</g>
</g>
</g>
</svg>
